<svg xmlns="http://www.w3.org/2000/svg" fill="none" viewBox="0 0 200 200" id="Finances-Blockchain-Network-01--Streamline-Bangalore">
  <desc>
    Finances Blockchain Network 01 Streamline Illustration: https://streamlinehq.com
  </desc>
  <g>
    <g>
      <path fill="#fecfc4" d="M90.927 97.767c-0.0002 3.135 0.9291 6.199 2.6705 8.805 1.7413 2.606 4.2164 4.638 7.1125 5.837 2.896 1.2 6.082 1.514 9.157 0.903 3.074 -0.612 5.898 -2.121 8.114 -4.338 2.217 -2.216 3.726 -5.04 4.338 -8.114 0.611 -3.0748 0.297 -6.2614 -0.903 -9.1572 -1.199 -2.8959 -3.231 -5.371 -5.837 -7.1124 -2.606 -1.7413 -5.67 -2.6706 -8.805 -2.6704 -4.203 0.0008 -8.2329 1.6706 -11.2046 4.6423 -2.9718 2.9718 -4.6416 7.002 -4.6424 11.2047Z" stroke-width="1"></path>
      <g>
        <path fill="#fecfc4" d="M72.3683 116.768c-0.2606 -0.296 -0.5798 -0.535 -0.9373 -0.702l-7.3576 -4.904c0.6403 0.432 0.8493 1.622 0.6376 3.192 -0.8746 4.336 -2.9586 8.336 -6.011 11.537 -1.4808 1.456 -2.9117 2.119 -3.8035 1.723l7.4895 4.357c2.888 1.634 5.928 -3.706 3.04 -5.34 3.6645 2.083 6.8018 -3.245 3.4186 -5.467 -0.0775 -0.042 -0.1531 -0.088 -0.2266 -0.138 0.0786 0.045 0.1541 0.091 0.2266 0.138 0.2671 0.147 0.5565 0.25 0.8573 0.306 0.3881 0.071 0.7867 0.062 1.1709 -0.028 0.3843 -0.09 0.7457 -0.258 1.0616 -0.495 0.316 -0.236 0.5796 -0.535 0.7742 -0.879 0.1947 -0.343 0.3162 -0.723 0.357 -1.115 0.0407 -0.393 -0.0002 -0.789 -0.1202 -1.165s-0.3165 -0.723 -0.5771 -1.02Z" stroke-width="1"></path>
        <path stroke="#120071" stroke-linecap="round" stroke-linejoin="round" d="m64.0734 111.162 7.3576 4.904c0.3575 0.167 0.6767 0.406 0.9373 0.702 0.2606 0.297 0.4571 0.644 0.5771 1.02 0.12 0.376 0.1609 0.772 0.1202 1.165 -0.0408 0.392 -0.1623 0.772 -0.357 1.115 -0.1946 0.344 -0.4582 0.643 -0.7742 0.879 -0.3159 0.237 -0.6773 0.405 -1.0616 0.495 -0.3842 0.09 -0.7828 0.099 -1.1709 0.028 -0.3008 -0.056 -0.5902 -0.159 -0.8573 -0.306m-4.7712 -10.002c0.6403 0.432 0.8493 1.622 0.6376 3.192 -0.8746 4.336 -2.9586 8.336 -6.011 11.537 -1.4808 1.456 -2.9117 2.119 -3.8035 1.723m9.1769 -16.452 -0.0103 -0.007c0.0035 0.002 0.0069 0.005 0.0103 0.007Zm-9.1769 16.452 7.4895 4.357c2.888 1.634 5.928 -3.706 3.04 -5.34 3.6645 2.083 6.8018 -3.245 3.4186 -5.467m-13.9481 6.45 -0.2239 -0.131c0.0702 0.052 0.1449 0.096 0.2239 0.131Zm13.9481 -6.45c-0.0775 -0.042 -0.1531 -0.088 -0.2266 -0.138 0.0786 0.045 0.1541 0.091 0.2266 0.138Z" stroke-width="1"></path>
      </g>
      <g>
        <path fill="#fecfc4" d="M67.744 151.733c-2.909 1.266 -0.8601 6.456 2.1472 5.228 -3.5243 1.515 -0.9474 7.339 2.5592 5.935 -0.338 0.138 -0.6457 0.341 -0.906 0.598 -0.2657 0.262 -0.4766 0.574 -0.6203 0.918 -0.1436 0.345 -0.2171 0.714 -0.2162 1.087 0.0009 0.373 0.0762 0.742 0.2215 1.086 0.1453 0.344 0.3576 0.655 0.6247 0.916 0.267 0.26 0.5833 0.465 0.9304 0.602 0.3471 0.137 0.718 0.203 1.0911 0.195 0.373 -0.008 0.7406 -0.091 1.0814 -0.243l5.781 -2.663c3.173 -1.254 -2.965 -16.836 -6.138 -15.582l-6.556 1.923Z" stroke-width="1"></path>
        <path stroke="#120071" stroke-linecap="round" stroke-linejoin="round" d="M69.944 156.939c-0.0178 0.007 -0.0354 0.015 -0.0528 0.022m2.5808 5.926 -0.0216 0.009m-2.5592 -5.935c-3.0073 1.228 -5.0562 -3.962 -2.1472 -5.228l6.556 -1.923c3.173 -1.254 9.311 14.328 6.138 15.582l-5.781 2.663c-0.3408 0.152 -0.7084 0.235 -1.0814 0.243 -0.3731 0.008 -0.744 -0.058 -1.0911 -0.195 -0.3471 -0.137 -0.6634 -0.342 -0.9304 -0.602 -0.2671 -0.261 -0.4794 -0.572 -0.6247 -0.916 -0.1453 -0.344 -0.2206 -0.713 -0.2215 -1.086 -0.0009 -0.373 0.0726 -0.742 0.2162 -1.087 0.1437 -0.344 0.3546 -0.656 0.6203 -0.918 0.2603 -0.257 0.568 -0.46 0.906 -0.598m-2.5592 -5.935c-3.5243 1.515 -0.9474 7.339 2.5592 5.935" stroke-width="1"></path>
      </g>
    </g>
    <g>
      <path fill="#6153bd" d="M54.614 58.395c1.1333 0 2.052 -0.9187 2.052 -2.052 0 -1.1333 -0.9187 -2.052 -2.052 -2.052 -1.1333 0 -2.052 0.9187 -2.052 2.052 0 1.1333 0.9187 2.052 2.052 2.052Z" stroke-width="1"></path>
      <path fill="#6153bd" d="M72.97 74.205c0.0027 -0.2703 -0.0486 -0.5384 -0.1508 -0.7886 -0.1023 -0.2503 -0.2534 -0.4776 -0.4446 -0.6687 -0.1912 -0.1911 -0.4186 -0.3421 -0.6689 -0.4442 -0.2503 -0.1022 -0.5184 -0.1533 -0.7887 -0.1505 -0.4058 0.0002 -0.8024 0.1207 -1.1398 0.3463 -0.3373 0.2256 -0.6001 0.5462 -0.7553 0.9211 -0.1551 0.375 -0.1956 0.7876 -0.1164 1.1855 0.0793 0.398 0.2749 0.7636 0.5619 1.0504 0.287 0.2869 0.6526 0.4823 1.0506 0.5613 0.3981 0.0791 0.8106 0.0385 1.1855 -0.1169 0.3749 -0.1553 0.6953 -0.4183 0.9207 -0.7558 0.2255 -0.3374 0.3458 -0.7341 0.3458 -1.1399Z" stroke-width="1"></path>
      <path fill="#6153bd" d="M148.978 77.777c0 -0.4061 -0.12 -0.8031 -0.346 -1.1408 -0.225 -0.3378 -0.546 -0.6011 -0.921 -0.7566 -0.375 -0.1556 -0.788 -0.1964 -1.186 -0.1172 -0.398 0.0791 -0.764 0.2745 -1.051 0.5616 -0.288 0.2871 -0.483 0.6529 -0.562 1.0511 -0.08 0.3983 -0.039 0.8111 0.116 1.1863 0.156 0.3752 0.419 0.6959 0.756 0.9216 0.338 0.2256 0.735 0.346 1.141 0.346 0.544 -0.0008 1.066 -0.2172 1.45 -0.6018 0.385 -0.3846 0.602 -0.9061 0.603 -1.4502Z" stroke-width="1"></path>
      <path fill="#6153bd" d="M125.567 116.883c-0.406 0 -0.803 0.12 -1.141 0.346 -0.338 0.225 -0.601 0.546 -0.757 0.921 -0.155 0.375 -0.196 0.788 -0.117 1.186 0.08 0.399 0.275 0.765 0.562 1.052 0.287 0.287 0.653 0.482 1.052 0.562 0.398 0.079 0.811 0.038 1.186 -0.117 0.375 -0.156 0.696 -0.419 0.921 -0.757 0.226 -0.338 0.346 -0.735 0.346 -1.141 -0.001 -0.544 -0.218 -1.065 -0.602 -1.45 -0.385 -0.384 -0.906 -0.601 -1.45 -0.602Z" stroke-width="1"></path>
      <path fill="#6153bd" d="M149.415 104.646c-0.406 0 -0.803 0.12 -1.14 0.346 -0.337 0.225 -0.6 0.546 -0.756 0.921 -0.155 0.375 -0.196 0.787 -0.117 1.185 0.08 0.398 0.275 0.764 0.562 1.051 0.287 0.287 0.653 0.482 1.051 0.562 0.398 0.079 0.81 0.038 1.185 -0.117 0.375 -0.156 0.696 -0.419 0.921 -0.756 0.226 -0.337 0.346 -0.734 0.346 -1.14 -0.001 -0.544 -0.218 -1.065 -0.602 -1.45 -0.385 -0.384 -0.906 -0.601 -1.45 -0.602Z" stroke-width="1"></path>
      <path fill="#6153bd" d="M106.66 126.251c1.133 0 2.052 -0.919 2.052 -2.052s-0.919 -2.052 -2.052 -2.052 -2.052 0.919 -2.052 2.052 0.919 2.052 2.052 2.052Z" stroke-width="1"></path>
      <path fill="#6153bd" d="m57.464 126.935 -3.5 -1.881c-0.129 2.646 1.258 3.477 3.5 1.881Z" stroke-width="1"></path>
      <path fill="#6153bd" d="M61.911 111.62c0.95 0.665 1.919 1.311 2.869 1.843 0.076 -2.263 -0.931 -3.211 -2.869 -1.843Z" stroke-width="1"></path>
      <path fill="#6153bd" d="M55.716 81.958c0.6955 -0.5706 1.1791 -1.3584 1.3734 -2.2368 0.1943 -0.8784 0.0879 -1.7966 -0.3021 -2.6074 -0.39 -0.8107 -1.0409 -1.467 -1.8485 -1.8635 -0.8075 -0.3965 -1.7248 -0.5104 -2.6048 -0.3233 0.4182 -0.7823 0.5665 -1.6807 0.4219 -2.5559 -0.1446 -0.8752 -0.5739 -1.6782 -1.2214 -2.2844 -0.6476 -0.6063 -1.4771 -0.9819 -2.3598 -1.0687 -0.8828 -0.0867 -1.7696 0.1204 -2.5227 0.589 0.1469 -0.9116 -0.0241 -1.8461 -0.4842 -2.6467 -0.4602 -0.8006 -1.1816 -1.4187 -2.0434 -1.7507 -0.8617 -0.3319 -1.8113 -0.3575 -2.6897 -0.0725 -0.8783 0.285 -1.632 0.8633 -2.1347 1.6379 -0.43 -4.479 -7.268 -5.039 -8.19 -0.437 -0.4171 -0.8251 -1.1053 -1.4817 -1.9491 -1.8596 -0.8439 -0.3779 -1.792 -0.454 -2.6854 -0.2157 -0.8933 0.2384 -1.6775 0.7768 -2.2209 1.5248 -0.5434 0.7481 -0.8131 1.6603 -0.7636 2.5835 -0.6972 -0.549 -1.5565 -0.852 -2.4439 -0.8618 -0.8875 -0.0098 -1.7532 0.2742 -2.4624 0.8077 -0.7092 0.5336 -1.222 1.2867 -1.4585 2.1421 -0.2365 0.8554 -0.1835 1.7649 0.1508 2.587 -0.8541 -0.2732 -1.7749 -0.2534 -2.6165 0.0561 -0.8415 0.3095 -1.5557 0.8912 -2.0292 1.6527 -0.4734 0.7615 -0.6792 1.6592 -0.5845 2.5509 0.0947 0.8917 0.4844 1.7263 1.1072 2.3713 -0.95 -0.007 -1.8719 0.3225 -2.6023 0.93 -0.73044 0.6076 -1.22227 1.4541 -1.38839 2.3895 -0.16613 0.9354 0.00417 1.8995 0.48072 2.7214 0.47657 0.8219 1.22857 1.4486 2.12297 1.7691 -0.9241 0.2255 -1.7383 0.7716 -2.29761 1.5411 -0.55931 0.7694 -0.82748 1.7123 -0.7568 2.661 0.07068 0.9486 0.47563 1.8414 1.1428 2.5194 0.66721 0.6781 1.55331 1.0975 2.50061 1.1835 -0.6883 0.5762 -1.1639 1.3661 -1.351 2.2439 -0.1871 0.8779 -0.0751 1.7931 0.3184 2.6001 0.3935 0.806 1.0457 1.458 1.8526 1.851 0.807 0.393 1.7223 0.505 2.6 0.317 -0.4129 0.785 -0.555 1.685 -0.4044 2.559 0.1507 0.875 0.5856 1.675 1.2375 2.277 0.6519 0.602 1.4841 0.972 2.3677 1.053 0.8836 0.08 1.7692 -0.133 2.5192 -0.607 -0.1416 0.913 0.0348 1.847 0.4997 2.645 0.4648 0.798 1.1899 1.413 2.0538 1.74 0.8639 0.328 1.814 0.348 2.6912 0.058 0.8772 -0.289 1.6283 -0.872 2.1273 -1.649 0.0997 0.951 0.5355 1.836 1.2291 2.494 0.6935 0.659 1.5993 1.048 2.5544 1.099 0.9551 0.05 1.8968 -0.242 2.6558 -0.824 0.759 -0.582 1.2855 -1.416 1.4847 -2.351 0.3996 0.808 1.0539 1.462 1.862 1.862 1.247 -2.622 0.506 -6.143 -0.361 -8.969 -0.088 -0.3 -2.436 -7.3 -2.6 -7.772 -4.674 -0.817 -3.4 -6.366 -0.114 -4.731 1.225 0.612 2.09 0.867 2.09 -0.323 0.152 -7.753 5.587 -10.642 10.242 -4.162 2.389 3.149 4.618 9.554 4.618 15.012 0.7423 0.479 1.3712 1.115 1.843 1.862 0.4529 -0.343 0.8279 -0.779 1.1007 -1.277 0.2727 -0.499 0.4368 -1.05 0.4817 -1.616 0.0449 -0.567 -0.0306 -1.1368 -0.2215 -1.6722 -0.1908 -0.5353 -0.4927 -1.0243 -0.8859 -1.4348 0.9493 0.0132 1.8725 -0.3103 2.6059 -0.9131 0.7334 -0.6029 1.2296 -1.446 1.4004 -2.3799 0.1708 -0.9339 0.0052 -1.8981 -0.4673 -2.7215 -0.4725 -0.8234 -1.2215 -1.4528 -2.114 -1.7765 0.9291 -0.2203 1.7497 -0.7636 2.3153 -1.5329 0.5656 -0.7693 0.8394 -1.7146 0.7726 -2.6671 -0.0668 -0.9525 -0.4699 -1.8503 -1.1373 -2.5332 -0.6675 -0.6828 -1.5558 -1.1063 -2.5066 -1.1948Z" stroke-width="1"></path>
      <path fill="#6153bd" d="m31.717 178.183 12.18 -1.1c-3.5779 -0.133 -6.9811 -1.58 -9.558 -4.066 -0.9695 1.672 -1.8449 3.397 -2.622 5.166Z" stroke-width="1"></path>
      <path fill="#6153bd" d="m70.994 140.009 6.08 0.418 -7.316 -4.219c0.5222 1.228 0.9358 2.5 1.236 3.801Z" stroke-width="1"></path>
      <path fill="#6153bd" d="m42.947 107.952 2.489 2.3c-0.0693 -0.671 0.0843 -1.345 0.437 -1.92 -0.9894 0.032 -1.9776 -0.096 -2.926 -0.38Z" stroke-width="1"></path>
    </g>
    <g>
      <path stroke="#120071" stroke-linecap="round" stroke-linejoin="round" d="M8.724 150.384c-0.0002 0.368 -0.10957 0.728 -0.31429 1.034 -0.20472 0.306 -0.49559 0.545 -0.83585 0.686 -0.34025 0.14 -0.7146 0.177 -1.07573 0.105 -0.36113 -0.072 -0.69281 -0.249 -0.95312 -0.51 -0.2603 -0.26 -0.43754 -0.592 -0.5093 -0.953 -0.07177 -0.361 -0.03484 -0.736 0.10612 -1.076 0.14096 -0.34 0.37962 -0.631 0.6858 -0.835 0.30619 -0.205 0.66614 -0.314 1.03437 -0.314 0.49376 0.001 0.96706 0.197 1.31611 0.547 0.34905 0.349 0.54536 0.822 0.54589 1.316v0Z" stroke-width="1"></path>
      <path stroke="#120071" stroke-linecap="round" stroke-linejoin="round" d="M117.605 16.116c0 0.2967 -0.088 0.5867 -0.253 0.8334 -0.165 0.2467 -0.399 0.4389 -0.673 0.5524 -0.274 0.1136 -0.576 0.1433 -0.867 0.0854 -0.291 -0.0579 -0.558 -0.2007 -0.768 -0.4105 -0.209 -0.2098 -0.352 -0.4771 -0.41 -0.768 -0.058 -0.291 -0.028 -0.5926 0.085 -0.8667 0.114 -0.2741 0.306 -0.5084 0.553 -0.6732 0.246 -0.1648 0.536 -0.2528 0.833 -0.2528 0.398 0 0.779 0.1581 1.061 0.4394 0.281 0.2813 0.439 0.6628 0.439 1.0606Z" stroke-width="1"></path>
      <path stroke="#120071" stroke-linecap="round" stroke-linejoin="round" d="M190.535 71.241v8.931" stroke-width="1"></path>
      <path stroke="#120071" stroke-linecap="round" stroke-linejoin="round" d="M195 75.697h-8.931" stroke-width="1"></path>
      <path stroke="#120071" stroke-linecap="round" stroke-linejoin="round" d="M37.417 26.282h-7.924c-4.667 0.046 -4.646 7.021 0 7.021h4.428c4.768 0 4.555 7 0 7H26" stroke-width="1"></path>
      <path stroke="#120071" stroke-linecap="round" stroke-linejoin="round" d="M31.707 23.679v19.249" stroke-width="1"></path>
      <path stroke="#120071" stroke-linecap="round" stroke-linejoin="round" d="M50.206 106.755c0.8694 -0.594 1.5228 -1.454 1.862 -2.451" stroke-width="1"></path>
      <path stroke="#120071" stroke-linecap="round" stroke-linejoin="round" d="M49.5 111.164c-0.665 -0.532 -2.641 -1.939 -3.61 -2.851" stroke-width="1"></path>
      <path stroke="#120071" stroke-linecap="round" stroke-linejoin="round" d="M56.039 110.024c-0.95 -0.419 -1.8 -0.837 -2.584 -1.255" stroke-width="1"></path>
      <path stroke="#120071" stroke-linecap="round" stroke-linejoin="round" d="m47.02 113.638 2.938 2.067" stroke-width="1"></path>
      <path stroke="#120071" stroke-linecap="round" stroke-linejoin="round" d="M64.78 113.463c-2.8 -1.269 -7.767 -5.679 -8.76 -7.316 -3.915 -6.423 -5.7 -5.967 -2.565 2.622 -2.1809 -1.161 -4.1946 -2.612 -5.986 -4.313 -1.14 -1.064 -4.123 -4.941 -5 -4.3 -0.877 0.641 0.095 4.238 3.059 7.772 0.1096 0.137 0.2303 0.264 0.361 0.38 -1.045 1.577 -0.18 4.108 1.128 5.325 -1.145 0.65 -0.606 2.329 -0.026 3.283 0.2811 0.465 0.6304 0.884 1.036 1.245 -1.253 0.07 -1.36 2.417 0.2 3.62l9.176 5.191" stroke-width="1"></path>
      <path stroke="#120071" stroke-linecap="round" stroke-linejoin="round" d="M50.225 119.752c-0.19 -0.095 -1.587 -1.168 -2.2 -1.586" stroke-width="1"></path>
      <path stroke="#120071" stroke-linecap="round" stroke-linejoin="round" d="M46.576 69.0361v-16.227c-0.0004 -0.7309 0.1434 -1.4546 0.4232 -2.1298 0.2798 -0.6751 0.6901 -1.2885 1.2074 -1.8048 0.5172 -0.5163 1.1313 -0.9255 1.8069 -1.204 0.6757 -0.2786 1.3997 -0.4212 2.1305 -0.4194h109.261c0.732 0.0005 1.456 0.1452 2.132 0.4257 0.676 0.2806 1.29 0.6916 1.807 1.2095 0.517 0.5179 0.927 1.1326 1.206 1.8089 0.279 0.6763 0.423 1.4011 0.422 2.1329v78.5539c0.001 0.731 -0.143 1.455 -0.423 2.131 -0.279 0.676 -0.689 1.29 -1.206 1.807 -0.517 0.517 -1.131 0.927 -1.807 1.206 -0.676 0.28 -1.4 0.424 -2.131 0.423h-69.87" stroke-width="1"></path>
      <path stroke="#120071" stroke-linecap="round" stroke-linejoin="round" d="M46.576 64.3051h120.396" stroke-width="1"></path>
      <path stroke="#120071" stroke-linecap="round" stroke-linejoin="round" d="M56.666 56.343c0 0.4059 -0.1204 0.8026 -0.3458 1.14 -0.2255 0.3375 -0.546 0.6005 -0.9209 0.7558 -0.375 0.1553 -0.7876 0.196 -1.1856 0.1168 -0.3981 -0.0792 -0.7637 -0.2746 -1.0507 -0.5616 -0.287 -0.287 -0.4824 -0.6526 -0.5616 -1.0507 -0.0792 -0.398 -0.0385 -0.8106 0.1168 -1.1855 0.1553 -0.375 0.4183 -0.6955 0.7558 -0.921 0.3374 -0.2254 0.7341 -0.3458 1.14 -0.3458 0.5439 0.0011 1.0652 0.2176 1.4498 0.6022 0.3846 0.3846 0.6011 0.9059 0.6022 1.4498v0Z" stroke-width="1"></path>
      <path stroke="#120071" stroke-linecap="round" stroke-linejoin="round" d="M62.88 56.343c0.0002 0.4061 -0.1201 0.8032 -0.3456 1.141 -0.2255 0.3377 -0.5461 0.601 -0.9213 0.7565 -0.3752 0.1556 -0.788 0.1963 -1.1864 0.1171 -0.3983 -0.0792 -0.7642 -0.2747 -1.0514 -0.5619 -0.2872 -0.2872 -0.4827 -0.6531 -0.5619 -1.0514 -0.0792 -0.3983 -0.0384 -0.8112 0.1171 -1.1864 0.1555 -0.3752 0.4188 -0.6958 0.7565 -0.9213 0.3378 -0.2255 0.7349 -0.3458 1.141 -0.3456 0.5439 0.0011 1.0652 0.2176 1.4498 0.6022 0.3846 0.3846 0.6011 0.9059 0.6022 1.4498v0Z" stroke-width="1"></path>
      <path stroke="#120071" stroke-linecap="round" stroke-linejoin="round" d="M69.131 56.343c0 0.4059 -0.1203 0.8026 -0.3458 1.14 -0.2255 0.3375 -0.546 0.6005 -0.9209 0.7558 -0.375 0.1553 -0.7876 0.196 -1.1856 0.1168 -0.3981 -0.0792 -0.7637 -0.2746 -1.0507 -0.5616 -0.287 -0.287 -0.4824 -0.6526 -0.5616 -1.0507 -0.0791 -0.398 -0.0385 -0.8106 0.1168 -1.1855 0.1553 -0.375 0.4183 -0.6955 0.7558 -0.921 0.3374 -0.2254 0.7342 -0.3458 1.14 -0.3458 0.5439 0.0011 1.0652 0.2176 1.4498 0.6022 0.3846 0.3846 0.6011 0.9059 0.6022 1.4498v0Z" stroke-width="1"></path>
      <path stroke="#120071" stroke-linecap="round" stroke-linejoin="round" d="M90.927 97.767c-0.0002 3.135 0.9291 6.199 2.6705 8.805 1.7413 2.606 4.2164 4.638 7.1125 5.838 2.896 1.199 6.082 1.513 9.157 0.902 3.074 -0.612 5.898 -2.121 8.114 -4.338 2.217 -2.216 3.726 -5.04 4.338 -8.114 0.611 -3.0747 0.297 -6.2613 -0.903 -9.1572 -1.199 -2.8959 -3.231 -5.371 -5.837 -7.1123 -2.606 -1.7413 -5.67 -2.6707 -8.805 -2.6705 -4.203 0.0008 -8.2329 1.6707 -11.2046 4.6424 -2.9718 2.9717 -4.6416 7.002 -4.6424 11.2046v0Z" stroke-width="1"></path>
      <path stroke="#120071" stroke-linecap="round" stroke-linejoin="round" d="m103.373 96.9121 4.617 -0.076" stroke-width="1"></path>
      <path stroke="#120071" stroke-linecap="round" stroke-linejoin="round" d="M108.522 96.836c0.523 -0.0141 1.044 0.0766 1.532 0.2669 0.488 0.1903 0.932 0.4763 1.308 0.8412 0.375 0.3648 0.674 0.8011 0.878 1.2832 0.204 0.4821 0.31 0.9997 0.311 1.5237v-0.019c-0.002 1.043 -0.417 2.042 -1.155 2.779 -0.737 0.737 -1.736 1.152 -2.779 1.154h-5.244V90.984h4.617c0.776 0 1.52 0.3083 2.069 0.857 0.549 0.5487 0.857 1.293 0.857 2.069s-0.308 1.5203 -0.857 2.069c-0.549 0.5487 -1.293 0.857 -2.069 0.857h0.532Z" stroke-width="1"></path>
      <path stroke="#120071" stroke-linecap="round" stroke-linejoin="round" d="M105.14 104.665v2.033" stroke-width="1"></path>
      <path stroke="#120071" stroke-linecap="round" stroke-linejoin="round" d="M105.14 88.855v2.129" stroke-width="1"></path>
      <path stroke="#120071" stroke-linecap="round" stroke-linejoin="round" d="M107.42 104.665v2.033" stroke-width="1"></path>
      <path stroke="#120071" stroke-linecap="round" stroke-linejoin="round" d="M107.42 88.855v2.129" stroke-width="1"></path>
      <path stroke="#120071" stroke-linecap="round" stroke-linejoin="round" d="M103.373 90.984h-1.71" stroke-width="1"></path>
      <path stroke="#120071" stroke-linecap="round" stroke-linejoin="round" d="M101.663 104.665h1.71" stroke-width="1"></path>
      <path stroke="#120071" stroke-linecap="round" stroke-linejoin="round" d="M70.918 73.9771v12.142h24.987" stroke-width="1"></path>
      <path stroke="#120071" stroke-linecap="round" stroke-linejoin="round" d="M146.906 77.777v12.142h-26.431" stroke-width="1"></path>
      <path stroke="#120071" stroke-linecap="round" stroke-linejoin="round" d="M90.794 86.1191v-10.413h36.483v14.213" stroke-width="1"></path>
      <path stroke="#120071" stroke-linecap="round" stroke-linejoin="round" d="m64.153 111.2 22.612 15.087c2.242 1.438 3.8616 3.667 4.5375 6.243 0.6759 2.577 0.3588 5.313 -0.8885 7.667 -0.9954 1.791 -2.4949 3.25 -4.3124 4.196 -1.8175 0.945 -3.8728 1.336 -5.9106 1.124l-8.361 -0.76" stroke-width="1"></path>
      <path stroke="#120071" stroke-linecap="round" stroke-linejoin="round" d="m54.842 127.6 22.232 12.827" stroke-width="1"></path>
      <path stroke="#120071" stroke-linecap="round" stroke-linejoin="round" d="M73.046 168.739c0.2516 5.588 0.8992 11.15 1.938 16.646" stroke-width="1"></path>
      <path stroke="#120071" stroke-linecap="round" stroke-linejoin="round" d="M69.758 136.208c1.5 3.4 2.167 8.095 2.566 14.176" stroke-width="1"></path>
      <path stroke="#120071" stroke-linecap="round" stroke-linejoin="round" d="M91.155 101.188h-24.57v11.648" stroke-width="1"></path>
      <path stroke="#120071" stroke-linecap="round" stroke-linejoin="round" d="M106.641 113.634v10.584" stroke-width="1"></path>
      <path stroke="#120071" stroke-linecap="round" stroke-linejoin="round" d="M106.641 118.935h18.907" stroke-width="1"></path>
      <path stroke="#120071" stroke-linecap="round" stroke-linejoin="round" d="M137.044 89.919v16.779h12.617" stroke-width="1"></path>
      <path stroke="#120071" stroke-linecap="round" stroke-linejoin="round" d="m42.985 159.01 31.315 -9.2c3.173 -1.254 9.311 14.328 6.138 15.582 0 0 -16.969 8.629 -34.375 11.515 -19.039 3.157 -29.32 -37.244 -25.348 -47.885 4.432 -11.846 15.205 -10.682 17.956 -16.284" stroke-width="1"></path>
      <path stroke="#120071" stroke-linecap="round" stroke-linejoin="round" d="M38.253 142.555c1.152 4.476 4.482 11.994 6.463 15.947" stroke-width="1"></path>
      <path stroke="#120071" stroke-linecap="round" stroke-linejoin="round" d="M61.911 111.62c2.255 -1.592 3.17 -0.009 2.8 2.734 -0.8746 4.336 -2.9586 8.336 -6.011 11.537 -2.542 2.5 -4.937 2.66 -4.71 -0.856" stroke-width="1"></path>
      <path stroke="#120071" stroke-linecap="round" stroke-linejoin="round" d="M81.274 162.526c0.7518 -1.573 1.1229 -3.301 1.0833 -5.044 -0.0396 -1.743 -0.4888 -3.452 -1.3113 -4.989 -0.7909 -1.62 -2.0517 -2.963 -3.6178 -3.855 -1.5661 -0.892 -3.3648 -1.291 -5.1612 -1.145" stroke-width="1"></path>
      <path stroke="#120071" stroke-linecap="round" stroke-linejoin="round" d="M34.32 173.015c-2.2166 3.921 -4.0068 8.068 -5.34 12.37" stroke-width="1"></path>
      <path stroke="#120071" stroke-linecap="round" stroke-linejoin="round" d="M36.372 115.306c2.071 1.634 9.007 1.919 10.641 1.672" stroke-width="1"></path>
      <path stroke="#120071" stroke-linecap="round" stroke-linejoin="round" d="M35.422 115.933c-1.045 2.109 2.907 4.048 3.952 1.957 -0.247 2.262 4.086 2.737 4.333 0.456 -0.038 1.6 2.128 2.091 3.344 1.387" stroke-width="1"></path>
      <path stroke="#120071" stroke-linecap="round" stroke-linejoin="round" d="m123.933 177.252 -18.793 -9.52 18.679 -8.76" stroke-width="1"></path>
      <path stroke="#120071" stroke-linecap="round" stroke-linejoin="round" d="m140.674 177.423 18.659 -9.425 -18.773 -8.855" stroke-width="1"></path>
      <path stroke="#120071" stroke-linecap="round" stroke-linejoin="round" d="m138.754 151.296 -13.282 34.07" stroke-width="1"></path>
      <path stroke="#120071" stroke-linecap="round" stroke-linejoin="round" d="M38.291 103.791c-0.089 -0.3 -2.436 -7.3 -2.6 -7.772 -4.674 -0.817 -3.4 -6.3689 -0.114 -4.7309 1.122 0.559 2.1 0.9059 2.109 -0.3421 0.076 -7.754 5.5 -10.58 10.242 -4.162 2.349 3.181 4.618 9.555 4.618 15.012 0.7423 0.479 1.3712 1.115 1.843 1.862 0.4527 -0.344 0.8277 -0.779 1.1003 -1.278 0.2726 -0.498 0.4367 -1.049 0.4816 -1.616 0.0448 -0.566 -0.0306 -1.1357 -0.2213 -1.6711 -0.1908 -0.5353 -0.4926 -1.0243 -0.8856 -1.4349 0.9516 0.0175 1.8784 -0.3037 2.615 -0.9064 0.7366 -0.6027 1.2351 -1.4476 1.4063 -2.3839 0.1712 -0.9362 0.0042 -1.9028 -0.4714 -2.7272 -0.4756 -0.8244 -1.2287 -1.453 -2.1249 -1.7735 0.9289 -0.2192 1.7497 -0.7616 2.3157 -1.5301 0.566 -0.7685 0.8403 -1.7132 0.7741 -2.6654 -0.0662 -0.9521 -0.4687 -1.8498 -1.1356 -2.5326 -0.667 -0.6828 -1.5549 -1.1063 -2.5052 -1.1949 0.6303 -0.519 1.0877 -1.2174 1.3115 -2.0026 0.2239 -0.7852 0.2035 -1.6199 -0.0584 -2.3932 -0.2618 -0.7734 -0.7528 -1.4487 -1.4076 -1.9364 -0.6549 -0.4876 -1.4426 -0.7645 -2.2585 -0.7937 -0.3259 -0.0145 -0.6522 0.0174 -0.969 0.095 0.4195 -0.7824 0.5689 -1.6813 0.4248 -2.5573 -0.144 -0.8759 -0.5734 -1.6797 -1.2213 -2.2865 -0.6479 -0.6067 -1.4782 -0.9825 -2.3617 -1.0688 -0.8834 -0.0863 -1.7707 0.1217 -2.5238 0.5916 0.15 -0.9131 -0.0192 -1.8499 -0.4791 -2.6527 -0.46 -0.8029 -1.1825 -1.4227 -2.046 -1.7551 -0.8635 -0.3324 -1.8151 -0.3571 -2.6947 -0.0699 -0.8796 0.2872 -1.6333 0.8687 -2.1342 1.6467 -0.44 -4.583 -7.284 -4.9631 -8.189 -0.4371 -0.4146 -0.8288 -1.1025 -1.4893 -1.9475 -1.8698 -0.8451 -0.3806 -1.7956 -0.458 -2.691 -0.2191 -0.8955 0.239 -1.6811 0.7795 -2.2243 1.5304 -0.5431 0.751 -0.8106 1.6663 -0.7572 2.5916 -0.696 -0.5556 -1.5569 -0.8641 -2.4473 -0.8769 -0.8904 -0.0128 -1.7598 0.2708 -2.4714 0.8062 -0.7117 0.5354 -1.2251 1.2921 -1.4596 2.1512 -0.2345 0.8591 -0.1767 1.7718 0.1643 2.5944 -0.8549 -0.2781 -1.7784 -0.2618 -2.6229 0.0464 -0.8445 0.3083 -1.5614 0.8906 -2.0361 1.6541 -0.4747 0.7635 -0.6799 1.664 -0.5827 2.5577 0.0972 0.8938 0.491 1.7292 1.1187 2.3729 -0.9524 -0.0113 -1.8778 0.3159 -2.6114 0.9234 -0.73358 0.6074 -1.22767 1.4556 -1.39421 2.3933 -0.16654 0.9378 0.00529 1.9042 0.48486 2.7271 0.47955 0.8229 1.23575 1.4488 2.13375 1.7661 -0.9275 0.2219 -1.7458 0.7667 -2.30829 1.5368 -0.56249 0.7702 -0.83247 1.7154 -0.76161 2.6664 0.07086 0.9511 0.47794 1.8458 1.14836 2.5241 0.67044 0.6783 1.56034 1.0958 2.51054 1.1777 -0.6238 0.5221 -1.0747 1.2209 -1.2933 2.0044 -0.2186 0.7834 -0.1946 1.6147 0.0687 2.3843 0.2634 0.7693 0.7538 1.4413 1.4065 1.9263 0.6528 0.486 1.4373 0.762 2.2501 0.792 0.3321 0.015 0.6647 -0.017 0.988 -0.095 -0.4157 0.785 -0.5599 1.686 -0.4103 2.562 0.1496 0.876 0.5847 1.678 1.2375 2.28 0.6528 0.603 1.4866 0.973 2.3716 1.053 0.885 0.079 1.7714 -0.136 2.5212 -0.613 -0.1451 0.914 0.0291 1.85 0.4935 2.651 0.4643 0.801 1.1904 1.417 2.0559 1.745 0.8655 0.328 1.8176 0.348 2.696 0.056 0.8784 -0.292 1.6294 -0.877 2.1266 -1.658 0.0954 0.954 0.5293 1.843 1.2231 2.505 0.6939 0.662 1.6018 1.054 2.5595 1.104 0.9577 0.051 1.9018 -0.243 2.6615 -0.829 0.7596 -0.585 1.2846 -1.423 1.4799 -2.362 0.3996 0.808 1.0539 1.462 1.862 1.862 1.239 -2.534 0.438 -6.246 -0.383 -8.955Z" stroke-width="1"></path>
      <path stroke="#120071" stroke-linecap="round" stroke-linejoin="round" d="m43.897 177.081 -12.18 1.083" stroke-width="1"></path>
      <path stroke="#120071" stroke-linecap="round" stroke-linejoin="round" d="M45.417 110.252c-0.0695 -0.671 0.0841 -1.345 0.437 -1.92 -0.9894 0.032 -1.9776 -0.096 -2.926 -0.38l2.508 2.3h-0.019Z" stroke-width="1"></path>
    </g>
  </g>
</svg>