<svg xmlns="http://www.w3.org/2000/svg" fill="none" viewBox="0 0 200 200" id="Blockchain-Network--Streamline-Havana">
  <desc>
    Blockchain Network Streamline Illustration: https://streamlinehq.com
  </desc>
  <g id="blockchain-network--cryptocurrency-crypto-web 3.0-metaverse-bitcoin-ethereum-blockchain-network">
    <g id="block chain">
      <path id="vector" fill="#92fddb" d="M6.28899 84.351c0 30.305 0.075 30.208 0.054 30.309 0.15 0.15 28.56901 16.512 28.67501 16.573v-31.192c-0.113 -0.053 -28.61801 -15.632 -28.72901 -15.69Z" stroke-width="1"></path>
      <path id="vector_2" fill="#92fddb" d="M70.95 122.424c0 30.267 0.057 30.182 0.026 30.282 0.151 0.151 28.57 16.512 28.676 16.573v-31.165c-0.1 -0.046 0.023 -0.047 -28.702 -15.69Z" stroke-width="1"></path>
      <path id="vector_3" fill="#92fddb" d="M70.28 77.738c0.2952 0.1846 0.6093 0.3371 0.937 0.455l8.649 -4.927c-1.454 -4.362 5.48 -6.234 5.863 -1.794 0 3.6 -3.721 4.817 -5.355 2.812l-8.032 4.578c3.088 1.917 0.008 0.1 26.56 15.422V63.145L70.173 47.456V68.34c3.213 0.556 3.19 5.089 0 6.211 0 3.333 0.239 2.614 0.107 3.187Z" stroke-width="1"></path>
      <path id="vector_4" fill="#92fddb" d="M136.092 83.628v16.841c0.406 -0.285 0.88 -0.458 1.375 -0.5023 0.494 -0.0439 0.991 0.0433 1.442 0.2513 0.45 0.209 0.837 0.533 1.123 0.939 0.285 0.406 0.459 0.88 0.504 1.374 0 3.059 -2.673 4.433 -4.471 3.534v6.426c0 0.526 -0.923 0.889 9.237 -4.9 -0.133 -0.472 -0.165 -0.968 -0.092 -1.453 0.073 -0.486 0.248 -0.95 0.514 -1.363 0.266 -0.413 0.616 -0.764 1.028 -1.031 0.413 -0.267 0.877 -0.443 1.362 -0.517 0.395 -0.036 0.794 0.012 1.169 0.14 0.375 0.129 0.72 0.335 1.01 0.605 0.291 0.27 0.521 0.599 0.676 0.964 0.155 0.365 0.231 0.759 0.224 1.156 0.023 2.885 -3.555 4.753 -5.355 2.543l-9.532 5.435c1.429 0.722 2.815 1.527 4.15 2.41 0.967 0.567 0.191 0.709 3.722 -1.151 -0.082 -0.456 -0.072 -0.924 0.03 -1.376 0.102 -0.451 0.293 -0.878 0.563 -1.255 0.269 -0.377 0.611 -0.696 1.006 -0.939 0.395 -0.242 0.834 -0.403 1.292 -0.473 0.395 -0.036 0.794 0.012 1.169 0.14 0.376 0.128 0.72 0.334 1.011 0.605 0.291 0.27 0.521 0.598 0.676 0.964 0.155 0.365 0.231 0.759 0.224 1.156 0.025 3.068 -3.879 4.838 -5.543 2.3l-2.276 1.2 22.357 12.906V99.318c-0.102 -0.048 -0.004 -0.103 -28.595 -15.69Z" stroke-width="1"></path>
      <path id="vector_5" fill="#ffec81" d="M35.5 67.135c-0.1 0.1 -0.054 0.016 -28.354 15.85C35.739 98.587 35.694 98.535 35.8 98.6c0.1 -0.07 0.066 0.012 27.444 -15.8 -0.108 -0.06 -27.618 -15.665 -27.744 -15.665Z" stroke-width="1"></path>
      <path id="vector_6" fill="#ffec81" d="M127.9 120.844c-0.142 -0.08 -27.537 -15.5 -27.631 -15.582 -0.1 -0.1 -0.065 -0.084 -28.488 15.8l28.619 15.606c0.1 -0.068 0.07 0.016 27.5 -15.824Z" stroke-width="1"></path>
      <path id="vector_7" fill="#ffec81" d="M99.732 61.673c0.1 -0.07 0.068 0.016 27.444 -15.8 -27.6 -15.548 -27.582 -15.557 -27.682 -15.639 -0.11 -0.11 -2.516 1.413 -28.411 15.853 28.593 15.578 28.549 15.526 28.649 15.586Z" stroke-width="1"></path>
      <path id="vector_8" fill="#ffec81" d="M165.36 66.42c-0.1 -0.1 -0.809 0.408 -28.331 15.789 7.615 4.3 28.433 15.555 28.568 15.636 0.1 -0.07 0.069 0.016 27.471 -15.8C165.44 66.472 165.46 66.5 165.36 66.42Z" stroke-width="1"></path>
      <path id="vector_9" fill="#ffec81" d="M52.475 105.021c-0.2224 -0.057 -0.4544 -0.066 -0.6806 -0.026 -0.2261 0.04 -0.4412 0.127 -0.6311 0.256s-0.3502 0.297 -0.4702 0.493c-0.12 0.195 -0.1971 0.414 -0.2261 0.642 0.0279 0.316 0.1227 0.622 0.2782 0.898s0.3681 0.516 0.6236 0.704c0.2554 0.187 0.548 0.318 0.8581 0.384 0.31 0.065 0.6305 0.064 0.9401 -0.004 1.679 -0.394 1.239 -3.03 -0.692 -3.347Z" stroke-width="1"></path>
      <path id="vector_10" fill="#ffec81" d="M115.128 71.553c0.431 1.81 3.678 2.265 3.721 0.267 0.058 -2.641 -4.156 -2.874 -3.721 -0.267Z" stroke-width="1"></path>
      <path id="vector_11" fill="#ffec81" d="M83.935 70.937c-1.672 -1.395 -3.761 -0.2 -2.865 1.633 0.854 1.745 3.513 1.45 3.535 -0.214 0.0046 -0.2721 -0.0534 -0.5416 -0.1696 -0.7876 -0.1162 -0.2461 -0.2874 -0.4621 -0.5004 -0.6314Z" stroke-width="1"></path>
      <path id="vector_12" fill="#ffec81" d="M68.754 72.918c1.1 0.685 2.708 0.2 2.731 -1.1 -0.0223 -0.2927 -0.1026 -0.5781 -0.2362 -0.8394 -0.1337 -0.2614 -0.3181 -0.4935 -0.5424 -0.6828 -0.2244 -0.1893 -0.4842 -0.3321 -0.7643 -0.42 -0.28 -0.0879 -0.5748 -0.1191 -0.8671 -0.0918 -1.735 0.002 -1.744 2.251 -0.321 3.134Z" stroke-width="1"></path>
      <path id="vector_13" fill="#ffec81" d="M122.357 79.023c-0.353 -0.1083 -0.734 -0.0875 -1.074 0.0588 -0.339 0.1462 -0.616 0.4084 -0.78 0.7396 -0.164 0.3313 -0.205 0.7102 -0.116 1.0689 0.09 0.3588 0.304 0.6741 0.604 0.8897 1.269 1.048 3.106 0.753 3.106 -0.749 -0.021 -0.4819 -0.204 -0.9426 -0.52 -1.3071 -0.316 -0.3645 -0.746 -0.6116 -1.22 -0.7009Z" stroke-width="1"></path>
      <path id="vector_14" fill="#ffec81" d="M51.485 114.392c-0.067 2.2 3.775 2.854 3.775 0.642 0 -2.38 -3.712 -2.744 -3.775 -0.642Z" stroke-width="1"></path>
      <path id="vector_15" fill="#ffec81" d="M147.337 107.778c1.938 1.2 3.807 -1.1 2.089 -2.516 -2.376 -1.952 -4.394 1.087 -2.089 2.516Z" stroke-width="1"></path>
      <path id="vector_16" fill="#ffec81" d="M145.329 114.044c-0.055 2.407 3.695 2.735 3.749 0.642 0.054 -2.093 -3.695 -2.974 -3.749 -0.642Z" stroke-width="1"></path>
      <path id="vector_17" fill="#ffec81" d="M136.119 104.057c1.31 1.638 3.9 0.676 3.213 -1.2 -0.862 -2.357 -5.142 -1.501 -3.213 1.2Z" stroke-width="1"></path>
      <path id="vector_18" fill="#ffffff" d="M36.143 99.826v31.621l21.875 -13.334 -2.518 -1.338c-0.3476 0.46 -0.8261 0.805 -1.3727 0.989 -0.5467 0.184 -1.1362 0.199 -1.6915 0.043 -0.5553 -0.156 -1.0505 -0.476 -1.4211 -0.918 -0.3705 -0.442 -0.599 -0.986 -0.6557 -1.56 0 -4.773 6.105 -4.978 6.105 -0.937 0 1.3 -1.278 0.366 3.186 2.7l4.31 -2.624 -9.638 -5.515c-2.1 2.219 -5.422 -0.054 -4.954 -1.928 -0.064 -3.94 5.661 -5.016 6.078 -0.777 0.0092 0.467 -0.0727 0.931 -0.241 1.366l8.889 5.087V83.628C36.135 99.8 36.243 99.771 36.143 99.826Z" stroke-width="1"></path>
      <path id="vector_19" fill="#ffffff" d="M100.83 137.927v31.593l27.9 -17.028V121.7c-27.902 16.12 -27.799 16.171 -27.9 16.227Z" stroke-width="1"></path>
      <path id="vector_20" fill="#ffffff" d="M100.107 62.931v31.621l19.545 -11.942c-0.27 -0.4806 -0.42 -1.0193 -0.437 -1.5702 -0.017 -0.5509 0.099 -1.0979 0.338 -1.5945 0.239 -0.4966 0.594 -0.9281 1.036 -1.2581 0.441 -0.3299 0.956 -0.5485 1.5 -0.6372 0.623 -0.0891 1.257 0.0411 1.794 0.3684 0.538 0.3273 0.945 0.8313 1.151 1.4256l1.794 -1.1 -7.952 -4.551c-2.259 2.258 -5.4 -0.168 -4.953 -1.955 -0.065 -3.939 5.661 -5.016 6.077 -0.776 0.075 0.4662 0 0.944 -0.214 1.365l8.274 4.712V46.733c-27.948 16.103 -27.852 16.143 -27.953 16.198Z" stroke-width="1"></path>
      <path id="vector_21" fill="#ffffff" d="M165.972 99.1v31.62l27.9 -17V82.932c-27.895 16.076 -27.799 16.116 -27.9 16.168Z" stroke-width="1"></path>
      <path id="vector_22" fill="#ff749d" d="M79.571 150.082c0.38 0.127 -0.029 0.062 8.969 5.248v-9.371l-8.969 -4.927c0 9.035 0.029 8.668 0 9.05Zm3.668 -2.035c-0.2359 -0.275 -0.3601 -0.628 -0.348 -0.99 0 -1.689 1.874 -1.708 1.874 0 0.0122 0.228 -0.0328 0.455 -0.131 0.661 -0.0981 0.205 -0.2463 0.383 -0.431 0.517 0.152 1.539 0.458 2.517 -0.375 2.517 -0.175 0 -0.344 -0.1 -1.124 -0.456 -0.716 -0.325 -0.158 -0.979 0.535 -2.249Z" stroke-width="1"></path>
      <path id="vector_23" fill="#ff749d" d="M33.144 90.161c0.1 -0.05 0.009 -0.015 7.979 -4.605 -8.395 -4.73 -8.281 -4.716 -8.381 -4.766 -2.757 1.553 -5.542 3.106 -8.3 4.632 0.226 0.123 8.493 4.589 8.702 4.739Z" stroke-width="1"></path>
      <path id="vector_24" fill="#ff749d" d="M97.671 52.57c0.1 -0.051 0.008 -0.015 7.978 -4.606 -1 -0.563 -8.28 -4.689 -8.38 -4.739l-8.3 4.632c7.698 4.218 7.209 3.614 8.702 4.713Z" stroke-width="1"></path>
      <path id="vector_25" fill="#ff749d" d="M98.527 117.283c-2.757 1.553 -5.542 3.106 -8.3 4.632 7.463 4.09 7.33 3.71 8.7 4.74 0.1 -0.051 0.008 -0.016 7.979 -4.606 -8.393 -4.73 -8.279 -4.716 -8.379 -4.766Z" stroke-width="1"></path>
      <path id="vector_26" fill="#ff749d" d="M171.434 84.458c-1 -0.563 -8.28 -4.689 -8.38 -4.739l-8.3 4.632c7.463 4.089 7.329 3.71 8.7 4.739 0.11 -0.055 7.871 -4.568 7.98 -4.632Z" stroke-width="1"></path>
      <path id="vector_27" fill="#ff749d" d="M19.891 108.26c1.091 -3.152 0.391 -1.643 -0.161 -5.14 -0.6428 0.332 -1.3042 0.627 -1.981 0.883 -0.4979 1.745 -0.6061 3.578 -0.317 5.37 0.647 2.661 1.697 1.552 2.459 -1.113Z" stroke-width="1"></path>
      <path id="vector_28" fill="#24236f" d="M23.452 126.387c12.095 6.979 11.92 7.157 12.289 6.64l23.455 -14.3c7.331 3.934 6.824 3.647 12.128 0l1.125 0.643 -1.955 1.1c-1.045 0.209 -0.722 -0.013 -0.722 30.308 0 3.856 -0.926 2.57 3.186 4.927l26.881 15.529c0.307 0.175 0.015 0.019 25.543 -15.369 4.808 -2.9 4.471 -2.279 4.471 -4.953 0 -30.8 0.14 -30.689 -0.187 -30.871 -0.639 -0.355 -1.285 -0.723 -1.928 -1.071l0.991 -0.562c5.552 3.78 4.937 3.778 11.968 0.08 24.615 14.232 24.44 14.4 24.82 13.869 28.741 -17.527 28.361 -17.252 28.783 -17.564 0.984 -0.726 0.669 0 0.669 -33.039 0.23 -0.538 0.085 -0.376 -26.025 -15.155 -3.075 -1.74 -2.837 -1.693 -3.052 -1.713 -0.325 -0.03 -0.064 -0.109 -30.041 16.627l-6.751 -3.856c0.055 -0.221 0.245 -32.394 -0.134 -32.611L100.8 29.169c-0.9 -0.56 -0.753 -0.64 -1.767 -0.081 -29.74 16.397 -29.588 16.474 -29.663 16.574 -0.583 0.524 -0.375 -0.006 -0.375 22.7 -0.8813 0.2706 -1.6202 0.878 -2.0563 1.6902 -0.436 0.8123 -0.534 1.7637 -0.2727 2.6478 -8.816 5.122 -8.709 5.041 -8.809 5.141L36.839 65.984c-0.9 -0.56 -0.755 -0.643 -1.767 -0.081C5.47799 82.346 5.59999 82.431 5.48599 82.584c-0.583 0.525 -0.375 0.009 -0.375 30.094 0 0.75 -0.352 2.574 0.188 3.213 0.085 0.101 0.001 0.019 18.15301 10.496ZM35.5 67.135l27.739 15.609c-0.1 0.057 -27.344 15.727 -27.444 15.8 -0.182 -0.109 -0.088 0.048 -28.64901 -15.556C35.489 67.132 35.4 67.235 35.5 67.135Zm15.985 47.284c0.063 -2.078 3.775 -1.787 3.775 0.642 0 2.229 -3.841 1.521 -3.775 -0.642Zm4.926 0.133c0 -4.3 -6.042 -3.752 -6.078 0.509 0.006 0.599 0.1984 1.182 0.5506 1.667 0.3522 0.485 0.8466 0.848 1.4147 1.039 0.568 0.192 1.1815 0.201 1.7553 0.028 0.5737 -0.174 1.0792 -0.521 1.4464 -0.995l2.517 1.339 -21.874 13.335V99.826c0.1 -0.05 0.006 -0.094 27.9 -16.2v29.077l-8.889 -5.087c0.1694 -0.435 0.2513 -0.899 0.241 -1.366 -0.413 -4.123 -6.078 -3.271 -6.078 0.777 0.004 0.572 0.1792 1.131 0.5029 1.603s0.7813 0.836 1.3138 1.046c0.5325 0.211 1.1157 0.257 1.6746 0.133 0.5588 -0.124 1.0679 -0.412 1.4617 -0.828l9.639 5.516 -4.309 2.626 -3.373 -1.767c0.0839 -0.262 0.1454 -0.531 0.184 -0.804ZM6.28899 84.351C34.939 100.003 34.889 99.994 34.989 100.041v31.165C6.43599 114.727 7.00899 114.958 6.42299 114.713c-0.137 -0.137 -0.134 -0.013 -0.134 -30.362ZM50.494 106.386c0 -2.01 3.831 -1.861 3.775 0.723 -0.05 2.291 -4.1 1.226 -3.775 -0.723ZM60.8 117.712c1.438 -0.876 3.8 -2.082 4.1 -2.678l5.354 3.053c-4.094 3.032 -4.476 2.278 -9.454 -0.375Zm13.307 0.723c-9.114 -5.192 -8.862 -4.782 -8.862 -5.6V82.959l5.488 -3.133c28.8 16.66 28.681 16.859 29 16.306l20.75 -12.665c0.583 0.3598 1.273 0.5059 1.952 0.4132 0.679 -0.0926 1.305 -0.4183 1.77 -0.9212 10.711 5.956 10.55 5.934 10.763 5.863v12.959c-0.394 0.698 -0.518 1.517 -0.348 2.3l-16.734 9.264 -16.332 -9.184c-0.9 -0.56 -0.75 -0.635 -1.767 -0.08l-25.68 14.354Zm-6.4 -47.257c0 -1.595 2.021 -1.771 3.106 -0.777 0.2956 0.1997 0.5133 0.495 0.6167 0.8364 0.1033 0.3414 0.0859 0.708 -0.0493 1.038 -0.1352 0.3301 -0.38 0.6035 -0.6932 0.7743 -0.3131 0.1707 -0.6755 0.2284 -1.0262 0.1633 -0.5152 -0.0489 -0.9956 -0.2813 -1.3537 -0.6549 -0.3582 -0.3735 -0.5701 -0.8633 -0.5973 -1.3801h-0.003ZM99.464 30.24 127.2 45.876C99.784 61.713 99.859 61.6 99.759 61.673c-0.1 -0.06 -0.063 0 -28.676 -15.61C99.463 30.238 99.364 30.34 99.464 30.24ZM70.28 77.738c0.115 -0.4 -0.053 -0.112 -0.053 -3.213 3.118 -1.118 3.264 -5.647 0 -6.212V47.429l28.729 15.69v31.165C72.366 78.939 76.583 81.4 72.4 78.862l8.033 -4.578c1.78 2.185 5.355 0.4 5.355 -2.544 0.0067 -0.7527 -0.2858 -1.4773 -0.8131 -2.0145 -0.5272 -0.5372 -1.2462 -0.8431 -1.9989 -0.8505 -0.5098 0.0342 -1.0054 0.1824 -1.4504 0.4335 -0.445 0.2511 -0.828 0.5988 -1.1208 1.0175 -0.2929 0.4187 -0.4881 0.8978 -0.5713 1.4019 -0.0832 0.5041 -0.0523 1.0205 0.0905 1.5111l-8.648 4.927c-0.3449 -0.1105 -0.6785 -0.2538 -0.996 -0.428Zm10.549 -6.025c0.1 -2.107 3.152 -1.595 3.7 0.161 0.328 1.058 -0.608 2.07 -1.954 1.847 -0.4753 -0.0878 -0.9067 -0.3342 -1.2239 -0.6989 -0.3171 -0.3647 -0.5012 -0.8262 -0.5221 -1.3091Zm40.124 10.048c-0.195 -0.1337 -0.356 -0.3122 -0.468 -0.5206 -0.112 -0.2083 -0.173 -0.4405 -0.177 -0.6771 -0.004 -0.2365 0.049 -0.4707 0.154 -0.6828 0.104 -0.2121 0.259 -0.3961 0.449 -0.5365 0.312 -0.1931 0.67 -0.2997 1.037 -0.309 0.367 -0.0093 0.729 0.0791 1.051 0.2562 0.321 0.177 0.59 0.4364 0.778 0.7514 0.188 0.315 0.289 0.6744 0.293 1.0414 0 1.65 -2.042 1.665 -3.117 0.677Zm7.026 -4.693 -8.246 -4.712c0.206 -0.4648 0.286 -0.9754 0.232 -1.4809 -0.053 -0.5054 -0.238 -0.9881 -0.536 -1.3999 -0.298 -0.4117 -0.698 -0.7382 -1.162 -0.9469 -0.463 -0.2086 -0.973 -0.2922 -1.479 -0.2423 -3.672 0.466 -4 6.346 -0.108 6.346 0.4 0.0027 0.797 -0.0767 1.165 -0.2334 0.369 -0.1567 0.701 -0.3873 0.977 -0.6776l7.952 4.552 -1.793 1.1c-1.122 -3.153 -5.864 -1.925 -5.864 1.687 -0.001 0.5627 0.167 1.1127 0.482 1.579l-19.546 11.94V62.931c0.1 -0.05 0.028 -0.1 27.926 -16.2v30.337Zm-12.9 -5.944c0 -2.045 3.831 -1.849 3.775 0.723 -0.054 2.136 -3.78 1.472 -3.78 -0.723h0.005Zm50.256 -4.685c0.1 0.1 0.007 0 27.738 15.609 -27.418 15.838 -27.344 15.727 -27.444 15.8 -0.1 -0.06 -21.935 -11.892 -28.568 -15.636 28.258 -15.771 28.169 -15.673 28.269 -15.773h0.005ZM193.9 113.7l-27.9 17V99.1c0.2 -0.1 1.612 -1.051 27.9 -16.172V113.7Zm-48.462 0.964c-0.886 -2.864 3.73 -2.355 3.668 0.053 -0.047 1.783 -3.046 1.959 -3.67 -0.057l0.002 0.004Zm1.9 2.891c3.67 -0.473 4.005 -6.345 0.107 -6.345 -0.863 0.052 -1.676 0.423 -2.28 1.042 -0.604 0.618 -0.955 1.44 -0.986 2.304 0 0.987 0.8 0.319 -2.945 2.276 -1.568 -1.039 -3.195 -1.987 -4.873 -2.838l9.531 -5.435c1.781 2.185 5.355 0.4 5.355 -2.544 0 -3.738 -5.627 -4.021 -6.078 0.482 -0.01 0.346 0.045 0.692 0.161 1.018l-9.184 5.328c0 -0.1 -0.026 0 -0.026 -6.774 1.975 0.988 4.451 -0.838 4.471 -3.24 -0.001 -0.52 -0.144 -1.029 -0.412 -1.474 -0.269 -0.445 -0.654 -0.808 -1.114 -1.05 -0.46 -0.242 -0.977 -0.3548 -1.496 -0.3251 -0.519 0.0291 -1.02 0.2001 -1.449 0.4931V83.628l28.7 15.69v31.165l-22.357 -12.9 2.276 -1.2c0.105 0.149 0.607 1.168 2.598 1.168l0.001 0.004Zm-8.032 -14.726c0.692 1.847 -1.883 2.868 -3.213 1.2 -1.386 -1.94 0.663 -3.489 2.49 -2.142 0.733 0.542 0.622 0.938 0.722 0.938l0.001 0.004Zm7.015 3.213c0.1 -2.107 3.151 -1.595 3.695 0.161 0.678 2.197 -3.422 2.854 -3.696 -0.165l0.001 0.004Zm-17.578 46.481 -27.913 17.024V137.9c0.1 -0.05 -0.016 -0.108 27.912 -16.2l0.001 30.823ZM70.95 122.424c0.1 0.056 28.6 15.635 28.7 15.69v31.165c-28.538 -16.487 -27.945 -16.243 -28.542 -16.493 -0.14 -0.142 -0.158 -0.009 -0.158 -30.362Zm29.5 14.217c-0.1 -0.06 -0.057 0 -28.622 -15.609 28.214 -15.771 28.281 -15.75 28.381 -15.851l27.738 15.637c-27.465 15.858 -27.392 15.753 -27.492 15.823h-0.005Zm26.4 -18.5c-0.341 0.227 0.811 0.75 -7.792 -4.1l15.878 -8.782c0 8.3 0.024 5.312 -0.107 8.327 -2.042 1.177 -5.542 3.174 -7.974 4.554l-0.005 0.001Zm3.454 -0.669c5.322 -3.063 4.451 -2.758 4.792 -2.3 0.1 0.116 -0.368 -0.219 4.445 2.544 -5.017 2.744 -4.958 2.693 -9.232 -0.245l-0.005 0.001Zm4.632 -34.593v4.231l-9.907 -5.516c0.577 -1.875 -0.347 -0.4 2.972 -2.677l6.935 3.962Zm-67.633 -9.13c0.4486 0.5211 1.0822 0.8474 1.767 0.91 0 2.443 -0.39 4.234 0.4 4.5l-4.632 2.65 -5.783 -3.266 8.248 -4.794Z" stroke-width="1"></path>
      <path id="vector_29" fill="#24236f" d="m79.41 151.876 9.318 5.408c0.509 0.3 0.991 -0.642 0.991 -1.017 0 -11.6 0.108 -11.62 -0.188 -11.62 -0.772 -0.416 -0.7 -0.328 -0.7 -0.428 0.9 -9.263 -7.491 -13.24 -8.595 -4.632l-0.856 -0.456c-0.509 -0.267 -0.991 0.616 -0.991 1.018 0.004 11.694 -0.34 10.951 1.021 11.727Zm9.157 -5.944v9.368c-9 -5.186 -8.554 -5.1 -8.969 -5.248 0.028 -0.4 0 -0.014 0 -9.023l8.969 4.903Zm-7.282 -5.917c0.053 -1.553 0.484 -4.134 2.57 -3.588 3 0.787 3.989 4.445 3.909 7.256 -4.91 -2.683 -6.828 -3.668 -6.479 -3.668Z" stroke-width="1"></path>
      <path id="vector_30" fill="#24236f" d="M22.568 86.252c0.1 0.1 0 0 8.782 4.792 1.817 0.992 0.537 1.177 11.192 -4.98 0.322 -0.186 0.91 -1.071 0.4 -1.365l-0.375 -0.214c5.211 -3.24 0.862 -10.634 -8.193 -4.632 -1.681 -0.841 -0.471 -1.055 -11.246 4.98 -0.528 0.187 -0.988 1.151 -0.56 1.419Zm10.174 -5.435c0.1 0.05 -0.018 0.033 8.381 4.765 -7.97 4.591 -7.879 4.556 -7.979 4.606 -1.365 -1.024 -1.273 -0.669 -8.7 -4.739 2.756 -1.549 8.298 -4.632 8.298 -4.632Zm8.675 2.918c-0.188 0.094 0.559 0.456 -5.944 -3.213 6.589 -3.98 10.919 1.3 5.944 3.213Z" stroke-width="1"></path>
      <path id="vector_31" fill="#24236f" d="M30.36 86.359c2.1 1.111 1.425 1.31 2.971 -0.991 1.227 0.2 1.875 -0.379 1.875 -0.91 0 -1.277 -2.785 -1.277 -2.785 0 0 0.281 0.4 0 -2.088 1.232 -0.061 0.0335 -0.1114 0.0833 -0.1456 0.1439 -0.0342 0.0606 -0.0508 0.1295 -0.048 0.199 0.0028 0.0695 0.0249 0.1368 0.0639 0.1944 0.039 0.0576 0.0932 0.1032 0.1567 0.1317Z" stroke-width="1"></path>
      <path id="vector_32" fill="#24236f" d="M87.1 48.66c0.1 0.1 0 0 8.782 4.793 1.8 0.983 0.535 1.181 11.165 -4.98 0.321 -0.186 0.91 -1.071 0.4 -1.365l-0.4 -0.215c5.162 -3.124 0.951 -10.692 -8.193 -4.632 -1.681 -0.84 -0.471 -1.055 -11.246 4.98 -0.487 0.188 -0.942 1.125 -0.508 1.419Zm10.174 -5.435c0.1 0.05 -0.007 0.014 8.38 4.739 -8.254 4.755 -7.878 4.505 -7.978 4.606 -1.365 -1.024 -1.273 -0.669 -8.7 -4.74l8.298 -4.605Zm8.675 2.919c-0.211 0.105 0.538 0.461 -5.944 -3.213 6.583 -3.981 10.914 1.299 5.939 3.213h0.005Z" stroke-width="1"></path>
      <path id="vector_33" fill="#24236f" d="M94.886 48.768c2.115 1.087 1.426 1.31 2.972 -0.991 1.226 0.2 1.874 -0.379 1.874 -0.91 0 -1.278 -2.784 -1.278 -2.784 0 0 0.282 0.367 -0.064 -2.089 1.258 -0.0615 0.0299 -0.1128 0.0771 -0.1479 0.1358 -0.035 0.0586 -0.0521 0.1263 -0.0492 0.1945 0.0028 0.0683 0.0256 0.1343 0.0654 0.1898 0.0398 0.0555 0.0949 0.0983 0.1587 0.1229Z" stroke-width="1"></path>
      <path id="vector_34" fill="#24236f" d="M100.107 116.4c-1.681 -0.841 -0.471 -1.055 -11.245 4.98 -0.644 0.214 -0.926 1.446 -0.4 1.446 10.438 5.7 9.731 5.614 10.763 5.007l9.077 -5.248c0.321 -0.188 0.91 -1.071 0.4 -1.366l-0.4 -0.214c5.252 -3.266 0.769 -10.651 -8.195 -4.605Zm-1.2 10.281c-1.365 -1.023 -1.273 -0.668 -8.7 -4.739 2.758 -1.553 5.543 -3.106 8.3 -4.632 0.1 0.05 -0.019 0.034 8.38 4.766 -7.977 4.589 -7.887 4.555 -7.987 4.605h0.007Zm8.3 -6.426c-0.21 0.105 0.532 0.456 -5.97 -3.213 6.573 -3.974 10.889 1.225 5.963 3.213h0.007Z" stroke-width="1"></path>
      <path id="vector_35" fill="#24236f" d="M99.6 120.014c-1.075 0 -1.558 0.765 -1.365 1.152 -3 1.478 -3.026 1.239 -0.7 2.436 0.0363 0.025 0.0774 0.042 0.1206 0.05 0.0433 0.008 0.0877 0.007 0.1305 -0.003 0.0429 -0.01 0.0831 -0.029 0.1182 -0.055 0.0351 -0.027 0.0643 -0.061 0.0857 -0.099 1.369 -2.036 0.888 -1.58 1.58 -1.58 1.811 0 1.882 -1.901 0.03 -1.901Z" stroke-width="1"></path>
      <path id="vector_36" fill="#24236f" d="M152.88 85.154c0.1 0.1 0 0 8.782 4.793 1.8 0.983 0.535 1.181 11.164 -4.98 0.322 -0.187 0.911 -1.071 0.4 -1.366l-0.4 -0.214c5.163 -3.124 0.952 -10.693 -8.192 -4.632 -1.682 -0.841 -0.471 -1.055 -11.246 4.98 -0.482 0.187 -0.937 1.151 -0.508 1.419Zm10.174 -5.435c0.1 0.05 -0.007 0.013 8.38 4.739 -8.254 4.755 -7.879 4.5 -7.979 4.605 -1.364 -1.023 -1.273 -0.668 -8.7 -4.739l8.299 -4.605Zm8.675 2.918c-0.21 0.105 0.532 0.456 -5.971 -3.213 6.875 -3.924 10.85 1.337 5.971 3.213Z" stroke-width="1"></path>
      <path id="vector_37" fill="#24236f" d="M160.671 85.288c2.1 1.111 1.425 1.31 2.972 -0.991 0.686 0.229 1.874 -0.144 1.874 -0.91 0 -1.277 -2.785 -1.277 -2.785 0 0 0.281 0.4 0 -2.088 1.232 -0.062 0.0327 -0.113 0.0823 -0.148 0.143 -0.035 0.0607 -0.052 0.13 -0.049 0.2 0.002 0.07 0.025 0.1377 0.065 0.1954 0.039 0.0577 0.095 0.103 0.159 0.1306Z" stroke-width="1"></path>
      <path id="vector_38" fill="#24236f" d="M16.624 104.405c-0.2792 1.296 -0.458 2.612 -0.535 3.936 -2.0511 0.075 -3.9996 0.916 -5.462 2.356 -0.484 0.48 -0.429 1.847 0.321 1.124 0.6828 -0.666 1.4916 -1.189 2.379 -1.538s1.8356 -0.518 2.789 -0.496c0.259 2.469 2.009 4.106 3.748 0.99 1.9812 1.102 3.6408 2.701 4.8148 4.64 1.1739 1.94 1.8217 4.152 1.8792 6.418 0 0.937 1.153 -0.027 1.151 -0.642 -0.0423 -2.435 -0.7285 -4.815 -1.989 -6.898 -1.2604 -2.084 -3.0501 -3.796 -5.187 -4.964 0.2 -0.4 0.53 -1.376 0.67 -1.793 3.22 5.933 11.834 7.086 11.834 -3.187 0 -0.431 0.08 -0.173 -21.607 -11.593 -1.164 -0.613 -1.364 3.613 -1.419 4.927 -0.228 5.443 1.401 8.229 6.613 6.72Zm2.383 5.971c-0.845 1.393 -1.292 -0.3 -1.392 -0.4 -0.658 -1.787 -0.245 -4.1 0.161 -5.944 3.067 -1.227 1.319 -1.6 2.784 2.062 -0.214 0.723 -0.428 1.472 -0.669 2.168 -0.1956 0.742 -0.4931 1.454 -0.884 2.114Zm-1.606 -7.2c-0.6932 0.238 -1.3998 0.434 -2.116 0.589 -0.248 -0.893 -1.5 -4.919 -2.918 -9.558l2.918 1.526c2.273 7.389 2.37 7.367 2.115 7.44l0.001 0.003Zm7.416 7.229c-0.483 -1.449 -3.357 -10.82 -3.561 -11.486 3.694 1.926 3.036 1.317 3.427 2.6l2.972 9.693c-0.9924 -0.069 -1.9592 -0.346 -2.838 -0.812v0.005Z" stroke-width="1"></path>
      <path id="vector_39" fill="#24236f" d="M168.676 103.307c-0.17 0.103 -0.312 0.249 -0.41 0.422 -0.098 0.174 -0.151 0.37 -0.152 0.569 0 9.579 8.127 8.384 11.62 2.436 0.214 0.75 0.482 1.5 0.75 2.223 -2.112 1.274 -3.867 3.061 -5.103 5.196 -1.236 2.135 -1.912 4.547 -1.965 7.013 0 0.937 1.149 -0.027 1.151 -0.643 0.045 -2.155 0.658 -4.261 1.777 -6.103 1.118 -1.843 2.704 -3.358 4.595 -4.392 0.616 1.2 1.658 2.539 2.838 1.231 0.547 -0.599 0.909 -1.342 1.044 -2.142 1.878 0.012 3.677 0.763 5.007 2.089 0.518 0.526 1.421 -0.779 0.991 -1.2 -0.768 -0.756 -1.681 -1.349 -2.684 -1.744 -1.003 -0.395 -2.075 -0.584 -3.153 -0.556 -0.002 -1.275 -0.119 -2.546 -0.348 -3.8 6.572 1.531 7.344 -4.913 6.024 -11.566 -0.268 -0.949 -0.594 0.273 -21.982 10.967Zm17.136 -0.214c-0.718 -0.145 -1.425 -0.342 -2.115 -0.589 -0.2 -0.079 -0.147 -0.044 2.142 -7.417 3.5 -1.829 3.009 -1.81 2.7 -0.856l-2.727 8.862Zm-5.194 1.74c1.092 -2.948 -0.187 -2.347 2.651 -1.365 1.49 6.624 -0.176 10.557 -2.651 1.365Zm-9.077 5.409c-0.452 -0.243 -0.838 -0.592 -1.124 -1.018l2.222 -7.224 1.714 -0.883c-0.299 1.06 -2.482 8.136 -2.812 9.125Zm4.793 -0.536c-0.886 0.47 -1.864 0.742 -2.865 0.8l3.079 -9.986c0.286 -0.893 -0.306 -0.4 3.347 -2.3 -0.803 2.533 -3.546 11.433 -3.561 11.486Z" stroke-width="1"></path>
      <path id="vector_40" fill="#24236f" d="M103.882 141.461c-0.17 0.103 -0.311 0.249 -0.41 0.422 -0.098 0.173 -0.151 0.369 -0.152 0.568 0 9.58 8.127 8.385 11.62 2.437 0.219 0.754 0.478 1.496 0.777 2.222 -2.112 1.274 -3.867 3.062 -5.103 5.196 -1.236 2.135 -1.912 4.547 -1.966 7.013 0 0.937 1.149 -0.026 1.151 -0.642 0.045 -2.156 0.657 -4.262 1.776 -6.106 1.119 -1.843 2.705 -3.359 4.597 -4.394 0.616 1.2 1.657 2.539 2.838 1.232 0.546 -0.599 0.909 -1.343 1.044 -2.142 1.878 0.013 3.676 0.763 5.007 2.088 0.521 0.524 1.421 -0.778 0.99 -1.205 -0.768 -0.756 -1.681 -1.349 -2.684 -1.745 -1.002 -0.395 -2.075 -0.584 -3.152 -0.555 -0.002 -1.275 -0.119 -2.546 -0.348 -3.8 6.567 1.529 7.343 -4.915 6.024 -11.567 -0.151 -1.057 -1.681 0.917 -22.009 10.978Zm11.968 1.526c1.092 -2.949 -0.186 -2.348 2.651 -1.366 1.63 7.947 -0.776 9.488 -2.651 1.366Zm-8.889 5.034c-0.457 -0.258 -1.109 -0.85 -1.044 -1.045l2.088 -6.747c1.928 -1 1.654 -0.99 1.473 -0.375l-2.517 8.167Zm7.711 -10.871 -3.213 10.415c-0.839 0.431 -1.758 0.687 -2.7 0.75l3.079 -10.067c3.522 -1.859 2.98 -1.718 2.834 -1.098Zm5.757 4.15c-0.727 -0.132 -1.437 -0.348 -2.115 -0.642 0.515 -1.739 0.093 -0.2 1.981 -6.453 0.192 -0.635 -0.283 -0.237 2.892 -1.9l-2.758 8.995Z" stroke-width="1"></path>
      <path id="vector_41" fill="#24236f" d="M83.828 150.752c0.769 0 0.546 -0.783 0.375 -2.517 0.1847 -0.134 0.3329 -0.312 0.431 -0.517 0.0982 -0.206 0.1432 -0.433 0.131 -0.661 0 -1.689 -1.874 -1.708 -1.874 0 -0.0033 0.361 0.1198 0.711 0.348 0.99 -0.706 1.294 -1.214 1.879 -0.535 2.249 -0.004 -0.096 0.773 0.456 1.124 0.456Z" stroke-width="1"></path>
      <path id="vector_42" fill="#ffffff" d="M24.764 110.242c0.185 0.464 2.044 0.874 2.918 0.937l-3.266 -10.656 -3.133 -1.634c0.363 1.188 2.764 8.762 3.481 11.353Z" stroke-width="1"></path>
      <path id="vector_43" fill="#ffffff" d="M12.367 94.257c2.768 9.022 2.71 8.809 2.918 9.559 0.7711 -0.167 1.5312 -0.382 2.276 -0.643 -2.936 -8.808 -1.027 -6.737 -5.194 -8.916Z" stroke-width="1"></path>
      <path id="vector_44" fill="#ffffff" d="M173.442 110.509c1.001 -0.057 1.979 -0.33 2.865 -0.8 0.259 -0.646 1.769 -5.78 3.561 -11.432 -4.833 2.516 -2.046 -0.359 -6.426 12.232Z" stroke-width="1"></path>
      <path id="vector_45" fill="#ffffff" d="M184.447 102.745c1.64 0.514 1.369 0.421 1.553 -0.161l2.784 -9.023c-4.062 2.124 -2.2 -0.116 -5.194 8.863 0.278 0.126 0.564 0.233 0.857 0.321Z" stroke-width="1"></path>
      <path id="vector_46" fill="#ffffff" d="M171.541 110.242c0.316 -0.946 0.038 -0.227 2.624 -8.461 0.279 -0.887 0.657 -0.9 -1.5 0.214l-2.222 7.229c0.276 0.425 0.653 0.775 1.098 1.018Z" stroke-width="1"></path>
      <path id="vector_47" fill="#ffffff" d="M108.755 148.288c0.942 -0.06 1.862 -0.315 2.7 -0.749l3.347 -10.871c-3.387 1.786 -2.893 1.375 -3.079 2.008l-2.968 9.612Z" stroke-width="1"></path>
      <path id="vector_48" fill="#ffffff" d="M120.429 141.273c0.315 -0.945 0.163 -0.283 2.651 -8.541 0.193 -0.643 0.708 -0.756 -2.624 0.991 -0.27 0.915 -2.116 6.8 -2.116 6.935 0.674 0.273 1.374 0.479 2.089 0.615Z" stroke-width="1"></path>
      <path id="vector_49" fill="#ffffff" d="m106.961 148.021 2.517 -8.167c0.178 -0.6 0.548 -0.669 -1.473 0.375l-2.088 6.747c-0.07 0.21 0.637 0.841 1.044 1.045Z" stroke-width="1"></path>
      <path id="vector_50" fill="#ffec81" d="M181.716 108.341c0.184 0.488 0.436 0.948 0.749 1.365 0.363 0.518 0.637 0.853 1.018 0.268 0.771 -1.184 0.062 -5.153 -0.241 -6.533 -0.685 -0.246 -1.356 -0.532 -2.008 -0.857 -0.559 2.609 -1.164 1.585 0.482 5.757Z" stroke-width="1"></path>
      <path id="vector_51" fill="#ffec81" d="M117.671 147.833c1.591 2.269 1.565 -2.794 0.8 -6.265 -0.685 -0.247 -1.356 -0.533 -2.008 -0.857 -0.662 3.09 -0.948 1.262 -0.08 4.257 0.254 1.025 0.69 1.995 1.288 2.865Z" stroke-width="1"></path>
    </g>
  </g>
</svg>