<svg xmlns="http://www.w3.org/2000/svg" fill="none" viewBox="0 0 200 200" id="Smartphone-With-Positive-Chart-Market--Streamline-Milano">
  <desc>
    Smartphone With Positive Chart Market Streamline Illustration: https://streamlinehq.com
  </desc>
  <g id="Smartphone-with-Positive-chart-market--cryptocurrency-crypto-web 3.0-metaverse-bitcoin-ethereum">
    <g id="Group">
      <path id="Vector" fill="#000000" d="M92.684 194.98c-4.825 -0.015 -11.7 0.151 -16.327 -1.847 -3.3618 -1.481 -6.4007 -3.607 -8.945 -6.257 -4.448 -4.937 -5.04 -6.654 -7.658 -17.86C47.349 115.919 36.405 40.58 39.44 29.764c1.089 -3.881 2.133 -6.863 4.738 -10.157 0.7861 -1.2357 1.944 -2.1902 3.307 -2.726 0.423 -0.173 3.459 -2.174 14.712 -5.081 17.77 -4.59002 63.07 -9.70002 70.1 -4.81602 4.489 3.11802 7.684 14.85302 9.117 20.12002 11.477 42.171 16.872 91.5 19.249 135.114 0.573 10.5 1.949 17.44 -7.967 21.308 -11.463 4.472 -26.084 8.381 -44.191 10.524 -5.239 0.749 -10.5307 1.06 -15.821 0.93Zm-0.155 -1.067c0 0.132 8.335 -0.237 8.475 -0.237 10.086 -1.013 7.9 -0.789 8.22 -0.824 13.336 -1.659 26.472 -4.652 39.211 -8.934 7.387 -2.628 8.849 -3.336 10.63 -7.017 1.8 -3.729 1.146 -7.578 0.89 -11.825 -2.672 -44.368 -6.62 -84.09 -17.007 -127.538C136.6 10.972 133.9 7.38798 128.3 6.63398c-10.079 -1.356 -26.9 0 -37.659 1.389C78 9.65398 56.7 12.011 46 18.986c-0.1298 0.0865 -0.2361 0.2039 -0.3094 0.3416 -0.0733 0.1377 -0.1113 0.2914 -0.1106 0.4474 0 0.023 0.9 19.8 5.06 53.589 2.631 21.384 10.98 68.586 21.847 112.1 1.939 7.77 5.5 8.449 20.042 8.449Z" stroke-width="1"></path>
      <path id="Vector_2" fill="#000000" d="M79.934 180.843c-2.707 -0.156 -3.1 -0.184 -3.128 -0.177 -0.439 0.094 -0.635 -0.3 -0.9 -1.181 -5.9 -19.718 -9.547 -39.54 -12.191 -52.423 -6.4206 -31.6671 -11.0427 -63.6724 -13.844 -95.8621 -0.113 -0.34 0.031 -1.11 0.472 -1.273 7.738 -2.862 51.572 -9.453 81.579 -10.545 0.652 -0.024 1.234 0 1.457 0.688 13.032 40.112 21.043 102.3001 22.913 143.6731 0.146 3.232 0.564 4.412 -0.369 4.887 -2.616 1.333 -9.525 3.067 -12.373 3.742 -35.506 8.418 -42.7 7.399 -63.616 8.471Zm75.618 -12.706c0.312 -0.094 -3.015 -55.274 -10.684 -96.0371 -5.285 -28.093 -11 -47.1 -12.046 -51.678 -0.346 -1.5 -46.693 3.9 -46.846 3.919 -2.536 0.286 -35.568 5.222 -35.47 6.469 1.015 12.808 3.491 30.1 4.377 36.977C59.9388 105.602 67.359 143.063 77.1 179.95c2 -0.716 30.984 2.57 78.452 -11.813Z" stroke-width="1"></path>
      <path id="Vector_3" fill="#000000" d="M83.678 17.84c-0.487 -0.151 -0.622 -0.641 0.236 -1.077 4.275 -2.173 20.927 -3.838 17.827 -1.613 -2.168 1.55 -16.147 3.285 -18.063 2.69Z" stroke-width="1"></path>
      <path id="Vector_4" fill="#000000" d="M111.48 187.54c-1.323 -0.571 -1.937 -1.439 -1.117 -2.62 2.583 -3.726 17.812 -6.4 21.5 -3.864 5.256 3.626 -14.513 9.014 -20.383 6.484Zm4.691 -0.253c8.648 -0.053 19.827 -4.582 14.057 -6.1 -4.231 -1.114 -14.235 0.524 -18.465 3.456 -2.684 1.857 1.127 2.664 4.408 2.644Z" stroke-width="1"></path>
      <path id="Vector_5" fill="#000000" d="M112.954 10.38c2.971 0 2.957 4.546 -0.04 4.488 -0.295 -0.0027 -0.586 -0.0633 -0.857 -0.1785s-0.517 -0.2827 -0.724 -0.4929c-0.417 -0.4246 -0.648 -0.9975 -0.643 -1.5926 0.005 -0.5952 0.247 -1.1638 0.671 -1.5809 0.425 -0.4171 0.998 -0.6484 1.593 -0.6431Z" stroke-width="1"></path>
      <path id="Vector_6" fill="#000000" d="M151.156 161.122c0 2.3 0.747 1.907 -7.343 3.573 -25.922 5.341 -24.7 4.772 -24.869 3.879 -0.289 -1.55 -1.47 -7.823 -1.771 -9.411 -0.533 -2.8 -0.6 -2.3 5.477 -3.323 10.245 -1.721 24.331 -4.4 27.013 -4.724 0.457 -0.056 0.746 0.63 0.789 1.07 0.179 1.787 0.3 2.095 0.44 4.19 0.039 0.588 0.295 4.743 0.264 4.746Zm-1.54 -9.383c-0.071 -0.411 -10.418 2.333 -31.815 5.754 -0.4 0.065 -0.031 -0.188 1.264 7.826 0.556 3.447 0.385 3.192 0.784 3.154 5.977 -0.579 30.346 -5.906 30.37 -5.906 0.307 -0.061 0.337 -0.106 0.328 -0.63 -0.132 0 -0.698 -8.862 -0.931 -10.198Z" stroke-width="1"></path>
      <path id="Vector_7" fill="#000000" d="M124.975 161.62c-2.065 0.335 -2.056 0.3 -2.138 0.094 -0.174 -0.426 1.094 -0.695 1.547 -0.781 23.381 -4.433 19.156 -2.323 0.591 0.687Z" stroke-width="1"></path>
      <path id="Vector_8" fill="#000000" d="M123.657 163.982c0 -0.4 -0.2 -0.611 9.838 -1.84 6.671 -0.817 -9.829 2.688 -9.838 1.84Z" stroke-width="1"></path>
      <path id="Vector_9" fill="#000000" d="M81.9649 173.9c-2.9 0 -2.7 1.2 -4.181 -6.288 -0.881 -4.457 -0.9 -4.472 -0.489 -4.59 2.981 -0.865 -3.167 0.381 33.1221 -5.173 0.193 0.005 0.379 0.073 0.53 0.194 0.151 0.121 0.259 0.288 0.306 0.475 0.284 1.49 1.271 7.226 1.276 7.249 0.35 1.936 0.99 4.1 -0.215 4.458 -3.64 1.067 -9.078 1.636 -12.9001 2.154 -5.7778 0.88 -11.6061 1.388 -17.449 1.521Zm-0.992 -0.472c0.047 0.515 25.3181 -2.4 30.3441 -3.664 1.33 -0.335 0.926 -0.695 0.527 -3.031 -1.45 -8.475 -1.22 -8.036 -1.453 -8 -18.7191 2.658 -32.7001 4.444 -32.5791 4.84 0 0.024 0.607 2.887 0.612 2.913 1.484 7.762 0.766 6.945 2.549 6.945v-0.003Z" stroke-width="1"></path>
      <path id="Vector_10" fill="#000000" d="M85.9519 166.932c-0.368 0 -0.784 0.055 -0.867 -0.16 -0.258 -0.675 2.1 -0.817 8.613 -1.595 5.6 -0.668 10.2841 -1.053 10.3151 -0.725 0.059 0.629 -18.0461 2.584 -18.0611 2.48Z" stroke-width="1"></path>
      <path id="Vector_11" fill="#000000" d="M85.487 170.154c-0.5 -0.144 -0.421 -0.71 0.258 -0.741 9.98 -0.456 8.917 -0.383 9.174 -0.3 -0.419 0.458 -8.13 1.416 -9.432 1.041Z" stroke-width="1"></path>
      <path id="Vector_12" fill="#000000" d="M106.647 101.835c-0.007 0.109 0.008 0.218 0.042 0.321 0.333 0.709 1.052 8.6 1.307 9.139 0.017 0.054 0.023 0.11 0.016 0.166 -0.007 0.056 -0.026 0.11 -0.056 0.157 -0.03 0.048 -0.07 0.089 -0.118 0.119 -0.047 0.031 -0.1 0.05 -0.156 0.058 -1.843 0.437 -1.925 0.279 -1.843 0.7 0.529 2.669 -0.3 2.8 -0.709 1.221 -0.258 -0.995 0.024 -1.259 -0.54 -1.226 -1.385 0.081 -1.748 0.1 -1.706 0.326 0.876 4.723 1.363 8.431 1.417 8.891 0.4 3.42 0.572 3.087 -1.653 3.515 -0.565 0.109 0.182 0.68 0.113 2.331 -0.014 0.355 -0.1 0.812 -0.364 0.574 -0.451 -0.73 -0.725 -1.556 -0.8 -2.411 -0.057 -0.3 -0.048 -0.35 -1.8191 -0.085 -0.626 0.093 -0.2 0.172 0.194 3.328 0.3191 2.582 0.3351 2.793 -0.272 2.868 -0.487 0.059 -0.945 0.21 -1.434 0.274 -0.2 0.025 -0.283 0.054 -0.255 0.323 0.293 2.855 -0.5 2.617 -0.784 1.233 -0.2 -1 0.023 -1.365 -0.388 -1.33 -1.889 0.162 -1.927 0.057 -1.847 0.451 1.087 5.341 0.958 5.011 2.232 14.128 0.364 2.6 0.6 2.761 -0.2 3 -3.136 0.941 -1.264 -0.615 -1.347 4.112 -0.0033 0.033 -0.0159 0.065 -0.0363 0.091 -0.0205 0.027 -0.048 0.047 -0.0794 0.058 -0.0313 0.011 -0.0653 0.014 -0.0979 0.007 -0.0326 -0.007 -0.0625 -0.024 -0.0864 -0.047 -0.1655 -0.19 -0.298 -0.406 -0.392 -0.64 -0.933 -2.911 -0.3 -3.026 -0.945 -2.977 -0.567 0.043 -1.134 0.08 -1.694 0.168 -0.434 0.068 -0.63 -0.152 -0.945 -0.054 -0.453 0.141 -0.388 -0.165 -0.781 -2.181 -0.711 -3.639 -2.346 -14.838 -1.954 -15.6 0.109 -0.212 0.06 -0.232 2.244 -0.614 0.562 -0.1 -0.353 -1.547 -0.38 -3.267 0.0009 -0.072 0.0273 -0.142 0.0745 -0.197 0.0472 -0.055 0.1122 -0.092 0.1837 -0.104 0.0715 -0.012 0.1449 0.002 0.2074 0.039 0.0625 0.036 0.1101 0.094 0.1344 0.162 1.166 3.708 -0.235 3.381 2.558 3.071 1.139 -0.127 0.348 0.753 -0.111 -5.388 -0.059 -0.8 -0.3 -0.861 2.152 -1.182 0.444 -0.058 -0.536 -2.32 0.3 -2.362 0.73 -0.036 0.347 1.94 0.664 2.183 0.05 0.038 -0.21 0.011 1.769 -0.165 0.355 -0.032 0.077 0.042 -0.6 -3.707 -0.184 -1.022 -0.906 -6.141 -0.992 -7.95 -0.026 -0.537 -0.084 -0.562 2.185 -0.976 0.472 -0.086 0.313 0.021 -0.012 -1.491 -0.156 -0.725 0.572 -0.916 0.808 -0.236 0.6241 1.8 -0.4 1.726 2.2181 1.34 0.5 -0.074 -0.107 -0.22 -1.151 -8.5 -0.215 -1.708 -0.2 -1.854 0.156 -1.944 2.469 -0.628 2.306 -0.456 2.223 -0.839 -0.125 -0.574 -0.592 -2.488 -0.021 -2.6 0.624 -0.121 0.718 2.085 0.708 2.6 0 0.293 0 0.175 1.708 0 0.281 -0.028 0.331 -0.067 0.251 -0.316 -0.518 -1.611 -1.948 -12.945 -1.994 -13.143 -0.11 -0.473 0.224 -0.629 0.761 -0.739 1.889 -0.391 1.933 -0.095 1.842 -0.57 -0.467 -2.441 -0.357 -1.741 -0.352 -1.84 0.028 -0.51 0.474 -0.556 0.661 -0.286 0.289 0.417 0.238 0.364 0.39 1.626 0.064 0.531 -0.066 0.744 0.567 0.687 2.62 -0.235 1.247 0.331 0.709 -5.773 -0.309 -3.5 -0.579 -3.07 1.474 -3.423 1.167 -0.2 0.711 0.236 0.524 -2.163 -0.03 -0.39 0.069 -0.525 0.288 -0.556 0.723 -0.1 0.755 0.792 0.9 1.526 0.234 1.227 -0.237 0.942 1.712 0.74 0.487 -0.051 -0.053 -0.5 -0.836 -6.338 -0.113 -0.841 1.15 -0.878 2.671 -1.134 0.4 -0.067 0.338 0.22 -0.059 -2.362 -0.042 -0.278 0.019 -0.743 0.319 -0.789 0.969 -0.148 0.539 3.043 0.964 2.986 2.064 -0.275 2.3 -0.309 2.19 -0.945 -0.11 -0.636 -0.507 -2.5 -1.17 -7.984 -1.137 -9.406 -1.041 -8.634 -0.184 -8.853 2 -0.51 1.979 -0.435 1.944 -0.666 -0.652 -4.328 -0.614 -3.674 -0.415 -4.5 0.109 -0.459 0.715 0.407 0.784 0.911 0.044 0.328 -0.194 -1.226 0.491 3.416 0.055 0.371 0.267 0.279 1.611 0.208 1.573 -0.083 1.368 -1.559 2.986 12.094 0.69 5.82 0.817 5.5 0.5 5.586 -3.666 1.032 -2.249 -0.489 -2.154 4.285 0.014 0.721 -0.548 0.187 -0.584 0 -0.302 -1.0495 -0.509 -2.1237 -0.621 -3.21 -0.005 -0.354 -0.1 -0.385 -0.442 -0.338 -2.057 0.282 -2.081 0.078 -2.01 0.513 1.121 6.89 1.054 6.732 0.446 6.871 -2.165 0.5 -2.031 0.274 -1.972 0.787 0.208 1.8 0.248 1.871 0.194 1.972 -0.165 0.308 -0.307 0.425 -0.52 0.14 -0.378 -0.508 -0.366 -0.518 -0.614 -1.977 -0.08 -0.473 -0.021 -0.367 -1.831 -0.1 -1.28 0.191 -0.355 0.073 0.04 4.655 0.4 4.668 0.515 4.071 -1.37 4.325 -0.595 0.081 -0.316 -0.022 -0.283 2.209 0 0.288 -0.264 0.736 -0.484 0.425 -0.326 -0.6619 -0.502 -1.3881 -0.513 -2.126 -0.064 -0.309 -0.066 -0.3 -0.4 -0.257 -1.96 0.279 -1.892 0.258 -1.823 0.668 1.4 8.324 1.546 11.525 1.722 13.058 0.04 0.354 0.049 0.265 -1.536 0.676 -0.581 0.15 -0.583 0.089 -0.55 0.312 0.11 0.748 0.376 3.306 -0.068 2.7 -1.229 -1.676 -0.179 -2.863 -1.46 -2.636 -1.962 0.341 -1.741 0.032 -1.741 0.767Z" stroke-width="1"></path>
      <path id="Vector_13" fill="#000000" d="M121.1 118.866c-0.836 -0.093 -1.934 -0.093 -1.613 -0.889 2.077 -4.601 4.526 -9.025 7.323 -13.227 1.449 -2.032 1.543 -2.292 2.126 -1.789 6.329 5.477 5.39 4.827 13.055 11.8 0.083 0.073 0.146 0.167 0.182 0.271 0.037 0.104 0.046 0.217 0.028 0.326 -0.019 0.109 -0.065 0.211 -0.135 0.297 -0.069 0.086 -0.159 0.153 -0.262 0.195 -1.429 0.383 -2.878 0.686 -4.341 0.907 -0.586 0.109 -0.138 0.114 0.9 7.179 3.013 20.423 3.448 18.5 1.465 18.9 -1 0.2 -5.587 1.165 -9.378 1.653 -2.227 0.287 -1.4 1.9 -4.225 -16.086 -1.652 -10.514 -1.605 -9.971 -1.921 -9.874 -1.055 0.21 -2.128 0.323 -3.204 0.337Z" stroke-width="1"></path>
      <path id="Vector_14" fill="#000000" d="M101.76 54.5c0.04 20.123 -25.689 29.656 -38.694 13.75 -3.5526 -4.4036 -5.2539 -10.0158 -4.7445 -15.6508 0.5094 -5.6349 3.1896 -10.851 7.4743 -14.5461 4.2847 -3.6951 9.8381 -5.5796 15.4867 -5.2553 5.6486 0.3243 10.9498 2.832 14.7835 6.9932 4.502 5.222 5.285 9.035 5.694 14.709ZM75.122 34.021c-4.1138 0.9928 -7.8317 3.205 -10.6668 6.3468 -2.8351 3.1418 -4.6552 7.0666 -5.2218 11.2604 -0.5666 4.1937 0.1467 8.4608 2.0464 12.2423 1.8998 3.7815 4.8973 6.901 8.6001 8.9499 3.7028 2.0489 7.9381 2.9317 12.1511 2.5327 4.213 -0.399 8.2072 -2.0613 11.4595 -4.7689 3.2522 -2.7077 5.6108 -6.3345 6.7665 -10.4054 1.156 -4.0709 1.056 -8.396 -0.288 -12.4088 -1.6773 -4.9802 -5.157 -9.1527 -9.7551 -11.6969 -4.598 -2.5443 -9.9815 -3.2763 -15.0919 -2.0521Z" stroke-width="1"></path>
      <path id="Vector_15" fill="#000000" d="M62.2299 54.233c0.0429 -3.4821 1.1148 -6.8737 3.0809 -9.748 1.9662 -2.8743 4.7386 -5.1027 7.9684 -6.4048 3.2298 -1.302 6.7726 -1.6196 10.1825 -0.9126 3.4099 0.7069 6.5345 2.4068 8.9804 4.8856 2.4459 2.4788 4.1039 5.6258 4.7653 9.0448 0.6613 3.419 0.2965 6.9573 -1.0486 10.1694 -1.3451 3.2122 -3.6103 5.9546 -6.5105 7.8822 -2.9003 1.9276 -6.306 2.9541 -9.7884 2.9504 -2.3402 0.0179 -4.6603 -0.4337 -6.8229 -1.3283 -2.1626 -0.8945 -4.1239 -2.2138 -5.7676 -3.8797 -1.6438 -1.6658 -2.9368 -3.6445 -3.8023 -5.8189 -0.8656 -2.1743 -1.2863 -4.5002 -1.2372 -6.8401Zm13.22 2.953c-0.307 0.321 0.086 -0.211 -1.511 2.076 -1.184 1.694 -1.246 1.595 -0.822 1.914 1.637 1.23 4.4 3.072 6.082 4.2 3.734 2.506 3.4 2.232 3.813 1.72 1.836 -2.3 2.211 -2.742 5.515 -7.167 1.344 -1.8 1.183 -1.682 0.945 -1.868 -1.269 -1 -1.711 -1.26 -3.071 -2.277 -0.286 -0.215 -0.144 -0.319 -2.572 3.035 -2 2.757 -1.745 2.81 -2.277 2.48 -0.708 -0.434 -3.852 -2.92 -6.102 -4.113Zm9.534 -6.855c0.473 0.332 0.151 0.462 2.8 -3.241 0.1 -0.144 0.093 -0.236 -0.047 -0.342 -2.9702 -2.2308 -6.1238 -4.2065 -9.427 -5.906 -0.31 -0.161 0.037 -0.65 -6.212 7.706 -0.974 1.3 -0.947 1.324 -0.709 1.485 3.738 2.535 3.3 2.461 3.713 1.949 0.234 -0.288 4.032 -5.747 4.032 -5.747 0.132 0 5.147 3.604 5.85 4.096Zm-12.444 5.154c0.3 -0.4 0.452 -0.229 -3.132 -2.5 -0.338 -0.214 -0.381 -0.185 -0.612 0.135 -0.7 0.966 -1.335 1.971 -1.944 2.995 -0.177 0.3 -0.555 0.153 3.1 2.766 0.9475 -1.0647 1.8127 -2.2 2.588 -3.396Zm18.2 -6.382c-0.21 0.281 0.2 -0.327 -2.126 3.174 -0.435 0.655 -0.553 0.2 2.939 2.792 0.238 0.177 0.209 0.178 1.417 -1.792 1.005 -1.64 1 -1.627 0.815 -1.772 -3.285 -2.624 -2.851 -2.289 -3.04 -2.405l-0.005 0.003Zm-10.906 2.083c-0.236 0.326 -0.752 1 -2.073 2.752 -0.357 0.473 -0.4 0.273 2.957 2.551 0.347 0.236 0.081 0.444 2.227 -2.556 0.347 -0.484 0.411 -0.406 -0.111 -0.763 -0.155 -0.106 -3 -2.084 -3 -1.984Z" stroke-width="1"></path>
    </g>
  </g>
</svg>